<svg width="24" height="24" viewBox="0 0 24 24" fill="none" xmlns="http://www.w3.org/2000/svg">
<path d="M21.7186 18.7034C21.3557 19.5419 20.926 20.3137 20.4282 21.0234C19.7497 21.9908 19.1942 22.6604 18.766 23.0323C18.1023 23.6426 17.3912 23.9552 16.6297 23.973C16.0831 23.973 15.4238 23.8174 14.6564 23.5019C13.8865 23.1878 13.1789 23.0323 12.532 23.0323C11.8534 23.0323 11.1257 23.1878 10.3474 23.5019C9.5678 23.8174 8.9398 23.9819 8.45966 23.9982C7.72943 24.0293 7.00158 23.7078 6.27506 23.0323C5.81136 22.6278 5.23136 21.9345 4.53654 20.9523C3.79106 19.9034 3.17817 18.6871 2.69803 17.3004C2.1838 15.8026 1.92603 14.3523 1.92603 12.9481C1.92603 11.3397 2.27358 9.9524 2.96973 8.78988C3.51684 7.8561 4.24469 7.11951 5.15565 6.57877C6.06662 6.03803 7.05091 5.76247 8.11091 5.74484C8.69091 5.74484 9.45151 5.92425 10.3967 6.27685C11.3392 6.63062 11.9444 6.81003 12.2097 6.81003C12.4081 6.81003 13.0804 6.60025 14.2201 6.18203C15.2979 5.79418 16.2075 5.63359 16.9527 5.69685C18.972 5.85981 20.489 6.65581 21.4979 8.08988C19.692 9.1841 18.7986 10.7167 18.8164 12.6828C18.8327 14.2142 19.3882 15.4885 20.4801 16.5004C20.9749 16.97 21.5275 17.333 22.1423 17.5908C22.009 17.9774 21.8682 18.3478 21.7186 18.7034ZM17.0875 0.47966C17.0875 1.67997 16.649 2.8007 15.7749 3.83803C14.7201 5.07122 13.4442 5.78381 12.0607 5.67136C12.0431 5.52736 12.0328 5.37581 12.0328 5.21655C12.0328 4.06425 12.5345 2.83107 13.4253 1.82277C13.87 1.31225 14.4357 0.887764 15.1216 0.549141C15.806 0.215571 16.4534 0.0310969 17.0623 -0.000488281C17.0801 0.159971 17.0875 0.32046 17.0875 0.47966Z" fill="url(#paint0_linear_376_6931)"/>
<defs>
<linearGradient id="paint0_linear_376_6931" x1="10.5637" y1="15.4938" x2="10.496" y2="-4.20793" gradientUnits="userSpaceOnUse">
<stop/>
<stop offset="1" stopOpacity="0"/>
</linearGradient>
</defs>
</svg>
