<?xml version="1.0" encoding="UTF-8"?>
<svg xmlns="http://www.w3.org/2000/svg" xmlns:xlink="http://www.w3.org/1999/xlink" width="390px" height="15px" viewBox="0 0 390 15" version="1.1">
<g id="surface1">
<path style="fill:none;stroke-width:1;stroke-linecap:butt;stroke-linejoin:miter;stroke:rgb(7.058824%,7.058824%,7.058824%);stroke-opacity:1;stroke-miterlimit:4;" d="M 0 9.5 L 262.000386 9.5 " transform="matrix(0.578571,0,0,0.578947,0,0)"/>
<path style=" stroke:none;fill-rule:nonzero;fill:rgb(7.058824%,7.058824%,7.058824%);fill-opacity:1;" d="M 160.160156 8.785156 C 159.6875 8.785156 159.273438 8.675781 158.917969 8.460938 C 158.566406 8.242188 158.292969 7.941406 158.097656 7.550781 C 157.902344 7.160156 157.804688 6.703125 157.804688 6.179688 C 157.804688 5.65625 157.902344 5.199219 158.097656 4.804688 C 158.292969 4.414062 158.566406 4.109375 158.917969 3.890625 C 159.273438 3.675781 159.6875 3.566406 160.160156 3.566406 C 160.632812 3.566406 161.046875 3.675781 161.398438 3.890625 C 161.75 4.109375 162.027344 4.414062 162.21875 4.804688 C 162.414062 5.199219 162.511719 5.65625 162.511719 6.179688 C 162.511719 6.703125 162.414062 7.160156 162.21875 7.550781 C 162.027344 7.941406 161.75 8.242188 161.398438 8.460938 C 161.046875 8.675781 160.632812 8.785156 160.160156 8.785156 Z M 160.164062 7.960938 C 160.46875 7.960938 160.722656 7.878906 160.925781 7.71875 C 161.125 7.554688 161.277344 7.339844 161.371094 7.070312 C 161.46875 6.800781 161.519531 6.503906 161.519531 6.175781 C 161.519531 5.855469 161.46875 5.558594 161.371094 5.289062 C 161.277344 5.015625 161.125 4.800781 160.925781 4.636719 C 160.722656 4.46875 160.46875 4.386719 160.164062 4.386719 C 159.851562 4.386719 159.597656 4.46875 159.394531 4.636719 C 159.191406 4.800781 159.042969 5.015625 158.941406 5.289062 C 158.847656 5.558594 158.796875 5.855469 158.796875 6.175781 C 158.796875 6.503906 158.847656 6.800781 158.941406 7.070312 C 159.042969 7.339844 159.191406 7.554688 159.394531 7.71875 C 159.597656 7.878906 159.851562 7.960938 160.164062 7.960938 Z M 163.609375 8.683594 L 163.609375 3.632812 L 164.558594 3.632812 L 164.558594 4.433594 L 164.613281 4.433594 C 164.703125 4.164062 164.867188 3.949219 165.097656 3.792969 C 165.332031 3.636719 165.597656 3.554688 165.894531 3.554688 C 165.957031 3.554688 166.027344 3.558594 166.113281 3.5625 C 166.195312 3.566406 166.265625 3.574219 166.3125 3.578125 L 166.3125 4.519531 C 166.273438 4.507812 166.203125 4.496094 166.101562 4.484375 C 166 4.46875 165.898438 4.460938 165.800781 4.460938 C 165.566406 4.460938 165.359375 4.511719 165.179688 4.609375 C 165 4.703125 164.855469 4.839844 164.75 5.011719 C 164.644531 5.183594 164.59375 5.378906 164.59375 5.597656 L 164.59375 8.683594 Z M 163.609375 8.683594 "/>
<path style="fill:none;stroke-width:1;stroke-linecap:butt;stroke-linejoin:miter;stroke:rgb(7.058824%,7.058824%,7.058824%);stroke-opacity:1;stroke-miterlimit:4;" d="M 297.999614 9.5 L 560 9.5 " transform="matrix(0.578571,0,0,0.578947,0,0)"/>
</g>
</svg>
