<svg width="24" height="24" viewBox="0 0 24 24" fill="none" xmlns="http://www.w3.org/2000/svg">
<path d="M23.7217 12.2657C23.7217 11.2818 23.6419 10.5639 23.4691 9.81934H12.2346V14.26H18.829C18.6961 15.3636 17.9782 17.0256 16.3827 18.1423L16.3603 18.291L19.9125 21.0429L20.1586 21.0674C22.4187 18.98 23.7217 15.9087 23.7217 12.2657Z" fill="#4285F4"/>
<path d="M12.2346 23.9661C15.4653 23.9661 18.1775 22.9024 20.1585 21.0677L16.3827 18.1426C15.3722 18.8473 14.0161 19.3392 12.2346 19.3392C9.07032 19.3392 6.3847 17.2518 5.42736 14.3667L5.28703 14.3786L1.59347 17.2372L1.54517 17.3715C3.51284 21.2804 7.5546 23.9661 12.2346 23.9661Z" fill="#34A853"/>
<path d="M5.4273 14.3662C5.1747 13.6216 5.0285 12.8238 5.0285 11.9995C5.0285 11.1751 5.1747 10.3774 5.41401 9.63288L5.40732 9.47431L1.66747 6.56982L1.54511 6.62803C0.734137 8.25012 0.268799 10.0717 0.268799 11.9995C0.268799 13.9274 0.734137 15.7488 1.54511 17.3709L5.4273 14.3662Z" fill="#FBBC05"/>
<path d="M12.2346 4.66054C14.4814 4.66054 15.9971 5.63112 16.8613 6.44221L20.2383 3.14487C18.1643 1.21701 15.4653 0.0336914 12.2346 0.0336914C7.5546 0.0336914 3.51284 2.71939 1.54517 6.62828L5.41407 9.63313C6.3847 6.74798 9.07032 4.66054 12.2346 4.66054Z" fill="#EB4335"/>
</svg>
