 <svg
              width="560"
              height="19"
              viewBox="0 0 560 19"
              fill="none"
              xmlns="http://www.w3.org/2000/svg"
              
            >
              <path d="M0 9.5H262" stroke="#121212" />
              <path
                d="M276.818 15.1761C276 15.1761 275.286 14.9886 274.676 14.6136C274.066 14.2386 273.593 13.714 273.256 13.0398C272.919 12.3655 272.75 11.5777 272.75 10.6761C272.75 9.77083 272.919 8.97917 273.256 8.30114C273.593 7.62311 274.066 7.09659 274.676 6.72159C275.286 6.34659 276 6.15909 276.818 6.15909C277.636 6.15909 278.35 6.34659 278.96 6.72159C279.57 7.09659 280.044 7.62311 280.381 8.30114C280.718 8.97917 280.886 9.77083 280.886 10.6761C280.886 11.5777 280.718 12.3655 280.381 13.0398C280.044 13.714 279.57 14.2386 278.96 14.6136C278.35 14.9886 277.636 15.1761 276.818 15.1761ZM276.824 13.75C277.354 13.75 277.794 13.6098 278.142 13.3295C278.491 13.0492 278.748 12.6761 278.915 12.2102C279.085 11.7443 279.17 11.2311 279.17 10.6705C279.17 10.1136 279.085 9.60227 278.915 9.13636C278.748 8.66667 278.491 8.28977 278.142 8.00568C277.794 7.72159 277.354 7.57955 276.824 7.57955C276.29 7.57955 275.847 7.72159 275.494 8.00568C275.146 8.28977 274.886 8.66667 274.716 9.13636C274.549 9.60227 274.466 10.1136 274.466 10.6705C274.466 11.2311 274.549 11.7443 274.716 12.2102C274.886 12.6761 275.146 13.0492 275.494 13.3295C275.847 13.6098 276.29 13.75 276.824 13.75ZM282.783 15V6.27273H284.425V7.65909H284.516C284.675 7.18939 284.955 6.82008 285.357 6.55114C285.762 6.27841 286.22 6.14205 286.732 6.14205C286.838 6.14205 286.963 6.14583 287.107 6.15341C287.254 6.16098 287.37 6.17045 287.453 6.18182V7.80682C287.385 7.78788 287.264 7.76705 287.089 7.74432C286.915 7.7178 286.741 7.70455 286.567 7.70455C286.165 7.70455 285.807 7.78977 285.493 7.96023C285.182 8.12689 284.936 8.35985 284.754 8.65909C284.572 8.95455 284.482 9.29167 284.482 9.67045V15H282.783Z"
                fill="#121212"
              />
              <path d="M298 9.5H560" stroke="#121212" />
            </svg>