<?xml version="1.0" encoding="UTF-8"?>
<svg xmlns="http://www.w3.org/2000/svg" xmlns:xlink="http://www.w3.org/1999/xlink" width="383px" height="13px" viewBox="0 0 383 13" version="1.1">
<g id="surface1">
<path style="fill:none;stroke-width:1;stroke-linecap:butt;stroke-linejoin:miter;stroke:rgb(7.058824%,7.058824%,7.058824%);stroke-opacity:1;stroke-miterlimit:4;" d="M 0 9.5 L 261.997389 9.5 " transform="matrix(0.683929,0,0,0.684211,0,0)"/>
<path style=" stroke:none;fill-rule:nonzero;fill:rgb(7.058824%,7.058824%,7.058824%);fill-opacity:1;" d="M 189.324219 10.382812 C 188.765625 10.382812 188.277344 10.253906 187.859375 10 C 187.441406 9.742188 187.117188 9.382812 186.886719 8.921875 C 186.65625 8.460938 186.542969 7.921875 186.542969 7.304688 C 186.542969 6.683594 186.65625 6.144531 186.886719 5.679688 C 187.117188 5.214844 187.441406 4.855469 187.859375 4.597656 C 188.277344 4.34375 188.765625 4.214844 189.324219 4.214844 C 189.882812 4.214844 190.371094 4.34375 190.789062 4.597656 C 191.207031 4.855469 191.53125 5.214844 191.761719 5.679688 C 191.992188 6.144531 192.105469 6.683594 192.105469 7.304688 C 192.105469 7.921875 191.992188 8.460938 191.761719 8.921875 C 191.53125 9.382812 191.207031 9.742188 190.789062 10 C 190.371094 10.253906 189.882812 10.382812 189.324219 10.382812 Z M 189.328125 9.40625 C 189.691406 9.40625 189.992188 9.3125 190.230469 9.121094 C 190.46875 8.929688 190.644531 8.671875 190.757812 8.355469 C 190.875 8.035156 190.933594 7.683594 190.933594 7.300781 C 190.933594 6.917969 190.875 6.570312 190.757812 6.25 C 190.644531 5.929688 190.46875 5.671875 190.230469 5.476562 C 189.992188 5.28125 189.691406 5.1875 189.328125 5.1875 C 188.960938 5.1875 188.660156 5.28125 188.417969 5.476562 C 188.179688 5.671875 188.003906 5.929688 187.886719 6.25 C 187.773438 6.570312 187.714844 6.917969 187.714844 7.300781 C 187.714844 7.683594 187.773438 8.035156 187.886719 8.355469 C 188.003906 8.671875 188.179688 8.929688 188.417969 9.121094 C 188.660156 9.3125 188.960938 9.40625 189.328125 9.40625 Z M 193.402344 10.261719 L 193.402344 4.292969 L 194.527344 4.292969 L 194.527344 5.242188 L 194.589844 5.242188 C 194.699219 4.917969 194.890625 4.667969 195.164062 4.480469 C 195.441406 4.296875 195.753906 4.203125 196.105469 4.203125 C 196.175781 4.203125 196.261719 4.203125 196.359375 4.210938 C 196.460938 4.214844 196.539062 4.222656 196.597656 4.230469 L 196.597656 5.339844 C 196.550781 5.328125 196.46875 5.3125 196.347656 5.296875 C 196.230469 5.28125 196.109375 5.273438 195.992188 5.273438 C 195.714844 5.273438 195.472656 5.328125 195.257812 5.445312 C 195.042969 5.558594 194.875 5.71875 194.75 5.925781 C 194.625 6.125 194.566406 6.359375 194.566406 6.617188 L 194.566406 10.261719 Z M 193.402344 10.261719 "/>
<path style="fill:none;stroke-width:1;stroke-linecap:butt;stroke-linejoin:miter;stroke:rgb(7.058824%,7.058824%,7.058824%);stroke-opacity:1;stroke-miterlimit:4;" d="M 298.002611 9.5 L 560 9.5 " transform="matrix(0.683929,0,0,0.684211,0,0)"/>
</g>
</svg>
